<?xml version="1.0" standalone="no"?>
<!DOCTYPE svg PUBLIC "-//W3C//DTD SVG 20010904//EN"
 "http://www.w3.org/TR/2001/REC-SVG-20010904/DTD/svg10.dtd">
<svg version="1.0" xmlns="http://www.w3.org/2000/svg"
 width="150.000000pt" height="150.000000pt" viewBox="0 0 150.000000 150.000000"
 preserveAspectRatio="xMidYMid meet">
<metadata>
Created by potrace 1.11, written by Peter Selinger 2001-2013
</metadata>
<g transform="translate(0.000000,150.000000) scale(0.100000,-0.100000)"
fill="#000000" stroke="none">
<path d="M0 750 l0 -750 750 0 750 0 0 750 0 750 -750 0 -750 0 0 -750z m379
472 c3 -1 -2 -10 -11 -19 -15 -15 -18 -14 -41 13 -41 47 -18 50 52 6z m25 -33
c-56 -71 -70 -83 -78 -70 -8 13 103 143 115 135 5 -3 -12 -32 -37 -65z m82 45
c-9 -25 -129 -165 -138 -162 -5 2 -9 8 -7 13 4 19 134 172 142 168 5 -3 6 -11
3 -19z m646 -93 c43 -50 51 -71 28 -71 -4 0 -32 30 -62 66 -78 97 -81 102 -72
115 5 9 15 2 33 -21 14 -19 47 -59 73 -89z m7 52 c31 -38 49 -69 44 -74 -10
-10 -124 121 -117 133 9 15 19 7 73 -59z m71 60 c-1 -5 -12 -21 -25 -38 -23
-28 -25 -29 -42 -13 -9 10 -15 19 -12 20 49 31 79 43 79 31z m-748 -128 c-66
-78 -90 -101 -100 -93 -9 8 -3 22 31 62 23 28 62 75 86 104 34 41 46 50 57 41
11 -9 -3 -31 -74 -114z m616 17 l81 -99 -24 -23 c-27 -25 -32 -49 -14 -67 8
-8 6 -18 -5 -35 -13 -19 -14 -34 -7 -71 5 -27 4 -50 -1 -55 -5 -5 -13 -25 -18
-43 -4 -19 -11 -43 -16 -54 -7 -19 -7 -19 13 -2 20 18 22 18 47 -9 l25 -28
-36 -45 c-116 -145 -153 -179 -153 -140 0 5 36 52 81 105 44 53 79 98 76 100
-2 3 -41 -41 -87 -96 -45 -55 -86 -100 -91 -100 -21 0 -17 24 10 59 27 34 39
61 27 61 -2 0 -27 -16 -56 -35 -62 -42 -112 -56 -197 -58 -82 -1 -60 -17 24
-17 40 0 81 8 115 21 50 19 52 19 35 1 -9 -10 -17 -27 -17 -38 0 -14 -2 -16
-9 -6 -11 17 -67 12 -63 -6 2 -10 -2 -10 -16 -3 -13 7 -22 7 -30 -1 -14 -14
-83 4 -102 27 -7 8 -18 15 -25 15 -6 0 -20 9 -29 19 -19 21 -53 33 -61 21 -3
-4 2 -13 10 -20 8 -7 15 -19 15 -26 0 -21 -27 -17 -44 8 -9 12 -18 19 -21 17
-2 -3 4 -15 15 -26 16 -18 17 -23 5 -33 -10 -9 -28 7 -87 77 -40 48 -79 94
-86 102 -10 10 -10 16 0 28 10 13 14 13 25 -3 16 -21 17 -11 3 17 -6 11 -7 19
-1 19 5 0 12 11 15 24 3 13 9 32 13 43 3 10 2 14 -2 10 -5 -4 -15 11 -22 35
-9 30 -9 44 -1 49 6 4 14 31 19 60 6 36 15 59 30 70 16 12 19 18 9 24 -8 5
-18 1 -26 -9 -12 -18 -34 -14 -34 5 0 10 158 202 171 207 4 2 10 -2 14 -8 4
-6 -7 -29 -24 -50 -50 -62 -38 -78 28 -38 20 12 44 30 54 40 14 14 50 19 65 7
1 -1 8 -2 15 -3 6 0 12 -9 12 -19 0 -22 23 -37 43 -29 10 3 13 1 8 -6 -10 -16
-37 -15 -60 3 -11 9 -24 11 -35 6 -9 -5 -33 -17 -55 -27 -21 -11 -43 -27 -50
-36 -6 -10 -23 -18 -38 -18 -15 0 -29 -4 -32 -8 -5 -9 84 1 155 17 62 15 132
13 223 -4 44 -8 81 -13 84 -10 3 3 0 5 -7 5 -7 0 -23 13 -37 29 -22 27 -86 56
-139 64 -31 4 -45 16 -38 33 4 12 14 14 42 9 55 -9 72 -16 66 -25 -3 -4 2 -10
10 -14 8 -3 15 -1 15 5 0 6 22 -5 49 -25 48 -34 50 -34 56 -15 5 15 -2 32 -25
61 -24 29 -29 43 -21 51 7 7 14 7 19 2 77 -89 103 -126 96 -137 -4 -7 -3 -10
1 -5 5 4 24 -7 42 -25 55 -53 37 -24 -48 77 -50 60 -78 102 -75 112 8 20 14
15 104 -95z m-654 -592 c49 -58 66 -85 61 -98 -6 -15 -8 -15 -18 -2 -7 9 -38
48 -69 87 -55 66 -69 93 -50 93 5 0 39 -36 76 -80z m750 72 c3 -5 -2 -18 -12
-28 -9 -10 -41 -49 -71 -87 -36 -43 -58 -64 -64 -58 -11 11 -15 6 68 109 59
71 69 80 79 64z m-780 -101 c57 -69 64 -81 47 -81 -16 0 -123 129 -116 140 3
5 8 10 9 10 2 0 29 -31 60 -69z m745 -13 c-30 -35 -55 -65 -57 -67 -1 -3 -6 0
-12 5 -5 5 13 35 47 77 36 44 60 64 66 58 6 -6 -9 -32 -44 -73z m-769 -13 c7
-9 11 -16 9 -18 -75 -43 -92 -42 -56 4 26 33 30 34 47 14z m819 -16 c37 -47
22 -48 -58 -2 -5 3 20 33 28 32 3 0 17 -14 30 -30z m-599 -129 c18 -11 13 -17
-20 -22 -17 -2 -26 2 -28 15 -4 19 23 23 48 7z m370 -11 c0 -16 -4 -19 -20
-14 -12 4 -20 2 -20 -5 0 -6 -4 -9 -10 -5 -17 10 1 36 21 30 11 -4 19 -2 19 4
0 6 2 11 5 11 3 0 5 -9 5 -21z m-315 -19 c7 0 16 6 18 13 3 7 6 4 6 -6 1 -23
-43 -20 -45 3 0 9 1 10 3 3 3 -7 11 -13 18 -13z m105 8 c0 -4 -6 -8 -14 -8 -8
0 -21 -3 -30 -6 -10 -4 -16 -1 -16 9 0 11 9 15 30 15 17 -1 30 -5 30 -10z m68
-6 c2 -7 -7 -12 -22 -12 -16 0 -26 6 -26 15 0 18 42 15 48 -3z m-462 -13 c72
-18 86 -79 18 -79 -24 0 -34 -5 -34 -16 0 -9 -7 -14 -17 -12 -14 3 -18 15 -20
61 -1 31 0 57 3 57 3 0 25 -5 50 -11z m844 -8 c0 -5 -15 -13 -32 -16 -41 -9
-50 -14 -43 -25 3 -6 15 -6 29 0 17 6 30 5 42 -4 17 -13 17 -15 1 -30 -9 -10
-17 -14 -17 -10 0 3 -7 1 -15 -6 -8 -7 -21 -10 -29 -7 -7 3 -19 0 -25 -6 -6
-6 -14 -8 -17 -4 -12 11 3 19 37 21 18 1 35 8 37 15 3 10 -2 12 -21 7 -32 -8
-57 1 -57 21 0 20 28 46 44 40 7 -3 19 -1 27 4 18 11 39 11 39 0z m-653 -36
c24 -16 31 -49 12 -61 -26 -16 -77 -12 -98 7 -20 18 -28 49 -16 61 12 11 81 6
102 -7z m88 -20 c1 -25 5 -31 28 -33 24 -3 27 0 27 27 0 24 4 31 20 31 15 0
20 -7 20 -28 0 -37 -17 -52 -58 -52 -52 0 -72 15 -72 56 0 28 3 35 18 32 11
-2 17 -13 17 -33z m263 -7 c2 -25 -2 -37 -13 -42 -16 -6 -55 13 -55 26 0 5 -4
8 -10 8 -5 0 -10 -9 -10 -20 0 -13 -7 -20 -20 -20 -17 0 -20 7 -20 40 0 34 3
40 22 40 12 0 32 -10 45 -22 22 -21 23 -21 23 -1 0 48 34 41 38 -9z m156 26
c19 -49 -13 -78 -78 -72 -27 3 -31 7 -34 37 -4 41 8 51 64 51 29 0 44 -5 48
-16z"/>
<path d="M1016 1071 c-5 -8 5 -19 49 -51 17 -13 17 -11 -3 17 -27 38 -39 47
-46 34z"/>
<path d="M476 1054 c-5 -14 -4 -15 9 -4 17 14 19 20 6 20 -5 0 -12 -7 -15 -16z"/>
<path d="M987 1046 c-4 -9 2 -17 13 -21 12 -4 22 -19 26 -43 4 -20 15 -45 25
-56 18 -19 28 -10 11 10 -5 5 -15 25 -22 44 -20 51 -46 84 -53 66z"/>
<path d="M467 980 c-9 -22 -17 -52 -17 -66 0 -27 35 -94 50 -94 4 0 11 -17 15
-37 3 -21 9 -49 12 -62 4 -16 2 -22 -5 -17 -8 5 -8 -2 -1 -24 l11 -30 38 30
c42 33 50 36 49 18 0 -7 -18 -28 -41 -45 -23 -20 -34 -33 -24 -33 10 0 13 -6
10 -15 -5 -11 1 -15 20 -15 14 0 26 -4 26 -8 0 -21 66 -45 124 -46 78 0 131
16 185 56 l44 32 -37 33 c-59 54 -46 74 15 23 34 -28 37 -28 52 -12 37 41 59
143 45 209 -7 32 -13 42 -19 32 -5 -8 -6 -26 -3 -41 8 -40 -11 -35 -44 11
l-29 40 5 -49 c5 -58 -10 -103 -49 -145 -15 -16 -39 -56 -53 -88 -29 -66 -58
-83 -116 -70 -30 7 -39 17 -65 69 -16 34 -46 81 -65 105 -30 37 -35 51 -35 94
0 27 4 63 8 80 7 24 3 21 -25 -20 -54 -79 -57 -75 -60 83 0 23 -1 42 -2 42 -1
0 -9 -18 -19 -40z"/>
<path d="M930 979 c0 -5 5 -7 10 -4 6 3 10 8 10 11 0 2 -4 4 -10 4 -5 0 -10
-5 -10 -11z"/>
<path d="M627 913 c-12 -11 -8 -50 7 -62 13 -11 89 -2 103 13 7 7 10 5 -43 34
-44 23 -57 26 -67 15z"/>
<path d="M840 905 c-14 -8 -32 -17 -41 -21 -31 -11 -11 -40 29 -41 52 -2 74
13 70 45 -4 32 -24 38 -58 17z"/>
<path d="M732 800 c-19 -31 -15 -37 28 -37 48 0 58 11 34 38 -22 24 -46 24
-62 -1z"/>
<path d="M440 749 c18 -62 60 -83 60 -30 0 23 -7 33 -32 45 -17 9 -32 16 -34
16 -1 0 1 -14 6 -31z"/>
<path d="M845 740 c-10 -11 -20 -18 -23 -15 -3 3 -11 0 -19 -6 -10 -9 -13 -8
-13 0 0 7 -4 9 -10 6 -5 -3 -10 1 -10 10 0 9 -5 13 -10 10 -6 -4 -7 -11 -4
-17 7 -12 -48 -7 -80 7 -19 8 -18 6 3 -28 14 -23 21 -48 19 -69 -2 -19 2 -33
10 -35 6 -3 12 0 12 7 0 6 5 8 13 4 8 -5 8 -2 -2 9 -20 24 1 45 39 39 21 -3
30 -10 30 -23 0 -10 5 -21 10 -24 6 -4 10 6 10 22 0 15 11 49 25 76 28 51 28
58 0 27z"/>
<path d="M1033 690 c-26 -50 -28 -60 -14 -60 11 0 22 17 34 57 9 31 15 58 14
59 -2 2 -17 -24 -34 -56z"/>
<path d="M455 580 c10 -11 20 -18 23 -15 7 6 -18 35 -31 35 -5 0 -2 -9 8 -20z"/>
<path d="M330 270 c0 -5 7 -10 15 -10 8 0 18 0 22 -1 4 0 9 4 11 10 2 6 -8 11
-22 11 -14 0 -26 -4 -26 -10z"/>
<path d="M480 235 c0 -20 5 -25 24 -25 30 0 42 16 26 35 -21 25 -50 19 -50
-10z"/>
<path d="M977 253 c-4 -3 -7 -15 -7 -25 0 -21 45 -26 52 -5 11 28 -24 52 -45
30z"/>
</g>
</svg>
